<svg viewBox="-827.945 87.353 4426.044 889.465" width="4426.044" height="889.465" xmlns="http://www.w3.org/2000/svg"><g stroke="#cef" stroke-width="15" fill="#00000000"><path stroke-dasharray="3600" stroke-dashoffset="3600" d="M1075.343 277.138c-13.3 6.2.6 5.8-217 6.2-134.5.2-210.7 0-236.3-.8-20.9-.6-38.1-.9-38.5-.6-.7.8 1.6 30.1 3.3 41.4 1.6 10.6 2.6 12.9 6.3 13.9 1.5.3 13.3-.1 26.2-1.1 12.9-.9 35.4-2.1 50-2.6 23.8-.9 382-1.5 382-.7 0 1.2-25.5 46.9-36.1 64.8-84.7 142.8-187.6 257-322.9 358.3-54.1 40.6-118.6 81.5-177.2 112.3l-22.7 11.9 7.5 3.7c10.9 5.4 19.7 11.5 29.4 20.3 9.8 8.8 12.8 10.5 17.7 9.4 1.9-.5 12.7-6 24.2-12.3 109.5-60.8 221.6-148.4 326.5-255.5 9.3-9.4 17.3-17.2 17.8-17.2 2.8 0 76.3 58.3 107.7 85.4 50.9 44 112 103.3 153.1 148.6 25.8 28.4 25.6 28.2 31 26.7 3.1-.8 32.3-31.3 34.6-36.1 1.5-3.1 1.5-3.6-.1-6.9-2.1-4.4-59.1-62.5-86.1-87.8-56.8-53.1-121-106.7-187.4-156.3-10.2-7.7-18.8-14.2-19.2-14.5-.4-.4 4.5-7.2 10.9-15.1 43.5-54.4 89.6-122.4 128.3-189.6 19.8-34.3 25-41.5 36.2-50.2 3.3-2.6 6.6-5.9 7.4-7.4 2.3-4.4 1.7-9.9-1.4-14.9-6.4-9.9-30.6-31.8-38.5-34.8-4.7-1.8-10.8-1.2-16.7 1.5z"><animate attributeName="stroke-dashoffset" dur="600ms" to="0" fill="freeze" begin="500ms"/></path><path stroke-dasharray="500" stroke-dashoffset="500" d="M1143.343 155.938c-1.4.7-8.8 5.8-16.6 11.2l-14 9.9 8.5 6.5c33 25.3 68 63.4 96.6 105.5 10.5 15.5 13.1 18.5 16.2 18.5 1.5 0 6.9-3.9 15-10.7 12.9-10.7 16.2-14 16.3-15.8 0-.6-4.1-6.9-9.1-14-31.5-44.8-67.3-83.3-97.9-105.2-9.9-7.1-11.6-7.7-15-5.9z"><animate attributeName="stroke-dashoffset" dur="200ms" to="0" fill="freeze" begin="1300ms"/></path><path stroke-dasharray="500" stroke-dashoffset="500" d="M1225.143 93.938c-3.3 1.7-27.8 20.7-27.8 21.5.1.3 5.5 4.9 12.1 10 14.2 11.3 43 38.9 56.2 53.9 11.6 13.2 23.4 28.6 35.2 45.6 10.2 14.6 12.8 17.2 16.6 15.8 1.3-.5 8.2-6 15.2-12.1 16.2-14.2 16-13.3 4.1-29.7-25.1-34.4-58.1-68-93.9-95.5-14.3-11-14.5-11.1-17.7-9.5z"><animate attributeName="stroke-dashoffset" dur="200ms" to="0" fill="freeze" begin="1500ms"/></path><path stroke-dasharray="2500" stroke-dashoffset="2500" d="M1755.643 164.738c.3 1.8 1.3 7.3 2.1 12.3 4.3 24.8 6.3 47.8 7.6 86.9 1.2 36.5 1.2 502.2 0 562.1-.5 25.3-1.4 61.1-2 79.5-1.7 58-1.7 56.1.4 59.7 1.4 2.3 3.1 3.4 6.2 4.2 5.9 1.5 42.9 1.3 47.4-.2 6.7-2.3 6.5 2.5 5.1-94.7-.6-48.1-1.1-148.6-1.1-223.3v-135.8l2.3.7c1.2.4 11.3 3.5 22.5 7 86.9 26.9 177.2 68 253.1 115.2 27.8 17.2 29 17.6 35.7 9.8 4.4-5.1 18.4-33.3 19.1-38.5.4-3 0-4.3-1.8-6.4-2.9-3.2-38.5-23.3-70.9-40.1-73.9-38.3-158.5-72.4-236.2-95.1l-23.8-7v-103.1c0-123.4.7-137.4 8.5-159.8 6.1-17.6 4.4-22.4-9.1-26.5-12.5-3.8-51.5-10.1-62.8-10.1-2.7 0-2.8.2-2.3 3.2z"><animate attributeName="stroke-dashoffset" dur="500ms" to="0" fill="freeze" begin="1700ms"/></path><path stroke-dasharray="500" stroke-dashoffset="500" d="M2076.243 195.338c-.9.4-8.4 5.4-16.6 11.2l-15 10.4 9.1 7c35.5 27.1 67.9 63.1 99.3 110.1 8.4 12.6 11.3 15.2 14.9 13.1 4.6-2.6 28.4-23 29-24.8.7-2.3-4.8-10.8-20.5-31.7-28.2-37.7-56.8-67-87.1-89.3-8-5.9-10.5-7-13.1-6z"><animate attributeName="stroke-dashoffset" dur="200ms" to="0" fill="freeze" begin="2200ms"/></path><path stroke-dasharray="500" stroke-dashoffset="500" d="M2156.643 134.338c-4 2.3-27.3 20.3-27.2 21.1 0 .3 4.1 3.7 9.1 7.6 32.5 25 69.5 65 93.7 101.5 10 15 11.8 17 14.7 17 2.7 0 30-23 30.6-25.7.8-3.5-1.1-7.3-8.8-17.5-26.8-35.5-57.3-66.4-92.4-93.8-15.9-12.3-15.9-12.4-19.7-10.2z"><animate attributeName="stroke-dashoffset" dur="200ms" to="0" fill="freeze" begin="2400ms"/></path></g></svg>
